<svg width="86" height="128" fill="none" xmlns="http://www.w3.org/2000/svg"><path d="M82.679 15.011H3.188A3.188 3.188 0 000 18.199v46.413a3.187 3.187 0 003.188 3.189H82.68a3.188 3.188 0 003.189-3.189V18.199a3.189 3.189 0 00-3.19-3.188zM8.25 48.236h-.226a3.19 3.19 0 01-3.189-3.189v-7.283a3.188 3.188 0 013.189-3.188h.226v13.66zm61.231 15.172H13.199V19.402h56.282v44.006zm8.777-17.856a4.146 4.146 0 01-4.146-4.147 4.146 4.146 0 114.146 4.147zM54.512 11H31.355v2.758h23.157V11zM46.466 75.861v-2.973h8.046V70.13H31.356v2.758h8.045v35.246a6.068 6.068 0 00-3.635 5.559V128h14.335v-14.307a6.062 6.062 0 00-3.636-5.557v-27.99h4.796l5.051 1.213v-6.711l-5.051 1.213h-4.795z" fill="#363636"/></svg>